HIERARCHY
ROOT Hips
{
    OFFSET 0.0 0.0 0.0
    CHANNELS 6 Xposition Yposition Zposition Zrotation Xrotation Yrotation
    JOINT Spine
    {
        OFFSET 0.0 5.0 0.0
        CHANNELS 3 Zrotation Xrotation Yrotation
        JOINT Chest
        {
            OFFSET 0.0 5.0 0.0
            CHANNELS 3 Zrotation Xrotation Yrotation
            JOINT Neck
            {
                OFFSET 0.0 8.0 0.0
                CHANNELS 3 Zrotation Xrotation Yrotation
                JOINT Head
                {
                    OFFSET 0.0 5.0 0.0
                    CHANNELS 3 Zrotation Xrotation Yrotation
                    End Site
                    {
                        OFFSET 0.0 3.0 0.0
                    }
                }
            }
            JOINT LeftShoulder
            {
                OFFSET -5.0 0.0 0.0
                CHANNELS 3 Zrotation Xrotation Yrotation
                JOINT LeftArm
                {
                    OFFSET 0.0 -10.0 0.0
                    CHANNELS 3 Zrotation Xrotation Yrotation
                    JOINT LeftForeArm
                    {
                        OFFSET 0.0 -10.0 0.0
                        CHANNELS 3 Zrotation Xrotation Yrotation
                        End Site
                        {
                            OFFSET 0.0 -3.0 0.0
                        }
                    }
                }
            }
        }
    }
}

MOTION
Frames: 14
Frame Time: 0.033333
970.000000 442.938926 137.541231 0.000000 0.000000 0.000000 0.000000 0.000000 0.000000 29.678605 -6.885915 0.000000 180.000000 -3.139872 0.000000 29.744881 14.908108 -0.000000 150.255119 19.153532 30.000000 19.983107 -2.318645 0.000000 18.000000 -0.171382 0.000000
1354.522934 467.411410 138.707120 0.000000 0.000000 0.000000 0.000000 0.000000 0.000000 150.622570 2.696600 4.973798 -29.377430 8.753512 4.973798 140.176400 -4.948858 3.759997 -12.221629 0.957035 29.763441 132.794256 -1.397467 -3.759997 -2.626015 0.242248 0.313953
969.997807 442.887864 137.271349 0.000000 0.000000 0.000000 0.000000 0.000000 0.000000 31.061399 14.939215 9.635073 180.000000 7.800110 9.635073 30.285790 -2.405670 7.460697 149.714210 11.015673 29.057495 19.151579 -5.866081 -7.460697 18.000000 -0.322380 0.626666
1246.736984 514.278152 96.240197 0.000000 0.000000 0.000000 0.000000 0.000000 0.000000 143.557092 -3.392164 13.690942 -36.442908 4.259429 13.690942 133.761037 -6.485284 11.043737 -156.950665 -5.810551 27.893295 0.000000 0.000000 0.000000 1.928484 0.500537 0.936907
1245.221100 458.637464 106.201954 0.000000 0.000000 0.000000 0.000000 0.000000 0.000000 160.701064 1.849396 16.886559 -19.298936 -9.159413 16.886559 140.193827 -5.367867 14.452610 -157.554825 -5.904536 26.289200 29.500467 5.257189 -14.452610 -15.049953 -0.525719 1.243449
1257.365570 418.514181 115.502573 0.000000 0.000000 0.000000 0.000000 0.000000 0.000000 -143.710676 8.502681 19.021130 36.289324 -6.074507 19.021130 163.220413 -2.144748 17.633558 11.688054 2.354707 24.270510 152.038385 -4.592046 -17.633558 -2.339948 0.147833 1.545085
1275.099564 408.163741 123.274850 0.000000 0.000000 0.000000 0.000000 0.000000 0.000000 -132.929531 1.209940 19.960535 47.070469 9.369438 19.960535 173.491912 -5.836863 20.536413 -160.709681 -5.007562 21.869059 33.138793 6.464894 -20.536413 -14.686121 -0.646489 1.840623
1290.611115 384.880857 98.137466 0.000000 0.000000 0.000000 0.000000 0.000000 0.000000 -132.705235 0.667520 19.645745 47.294765 -0.658332 19.645745 -173.778854 -1.095514 23.115397 20.496835 -1.846919 19.122720 -161.220290 -3.667120 -23.115397 1.723235 0.465655 2.128896
1302.817154 380.305352 108.404064 0.000000 0.000000 0.000000 0.000000 0.000000 0.000000 -131.493915 9.659025 18.096541 48.506085 -6.387306 18.096541 -165.393697 2.682533 25.329838 23.154815 -1.567818 16.074804 -178.200316 -1.252417 -25.329838 0.138141 -0.044979 2.408768
1304.997711 379.563582 100.561333 0.000000 0.000000 0.000000 0.000000 0.000000 0.000000 -126.727972 -3.008649 15.410265 53.272028 -4.732633 15.410265 -160.219593 3.396627 27.144812 28.448880 2.041503 12.773379 -174.368770 0.212885 -27.144812 0.079526 -0.021189 2.679134
1311.668472 386.890390 74.656434 0.000000 0.000000 0.000000 0.000000 0.000000 0.000000 -122.308728 -19.618307 11.755705 57.691272 16.923689 11.755705 -158.801130 -6.323403 28.531695 150.942637 6.081021 9.270510 -154.878332 -4.265487 -28.531695 2.695409 0.468150 2.938926
1305.131836 395.180186 71.178955 0.000000 0.000000 0.000000 0.000000 0.000000 0.000000 -125.112810 0.662025 7.362491 54.887190 -1.541270 7.362491 -146.487292 4.383147 29.468618 -175.167369 2.614820 5.621439 -159.224034 -4.280656 -29.468618 1.782042 0.471473 3.187120
1296.320457 392.734526 66.199374 0.000000 0.000000 0.000000 0.000000 0.000000 0.000000 -131.035750 -0.951028 2.506665 48.964250 0.550235 2.506665 -128.969563 -1.826862 29.940802 38.856147 -6.099578 1.883716 -134.776850 2.523234 -29.940802 3.458429 0.070771 3.422736
1306.963577 386.612041 72.547760 0.000000 0.000000 0.000000 0.000000 0.000000 0.000000 -124.469622 11.816727 -2.506665 55.530378 -9.861445 -2.506665 -109.994856 -0.915839 29.940802 37.691309 -5.148872 -1.883716 -118.274788 -1.219532 -29.940802 5.098336 0.230639 3.644843
